<svg width="24" height="24" viewBox="0 0 24 24" fill="none" xmlns="http://www.w3.org/2000/svg">
<path d="M13.9337 19.2423H10.0666C9.60964 19.2423 9.32284 19.8207 9.54464 20.2882C10.0236 21.2967 10.9438 21.9791 12 21.9791C13.0562 21.9791 13.9766 21.2967 14.4554 20.2882C14.6773 19.8207 14.3908 19.2423 13.9337 19.2423Z" fill="#757676"/>
<path d="M19.7595 15.7176C19.204 15.2235 18.7366 14.6639 18.3985 13.9998C17.9811 13.18 17.7863 12.3099 17.79 11.3899C17.7932 10.5191 17.817 9.64597 17.7636 8.77807C17.6213 6.46997 15.6318 4.17917 13.4983 3.58907C13.4755 3.58277 13.4586 3.57977 13.4367 3.57417C13.4394 3.53857 13.4474 3.50457 13.4474 3.46817C13.4474 2.66887 12.7993 2.02087 12.0001 2.02087C11.2009 2.02087 10.5528 2.66877 10.5528 3.46817C10.5528 3.50457 10.5609 3.53847 10.5634 3.57417C10.5414 3.57977 10.5245 3.58267 10.5016 3.58907C8.36844 4.17917 6.37874 6.46997 6.23664 8.77807C6.18314 9.64597 6.20684 10.5191 6.21024 11.3899C6.21374 12.3098 6.01884 13.1799 5.60164 13.9998C5.26364 14.6639 4.79614 15.2234 4.24084 15.7176C3.79834 16.1109 3.63834 16.6094 3.78964 17.1866C3.96784 17.8656 4.53234 18.2598 5.30254 18.2598C7.53494 18.26 9.76734 18.26 12 18.2598C14.2324 18.26 16.4651 18.26 18.6975 18.2598C19.4678 18.2598 20.0322 17.8655 20.2103 17.1866C20.3615 16.6095 20.2018 16.1109 19.7595 15.7176Z" fill="#757676"/>
</svg>
