<svg width="24" height="24" viewBox="0 0 24 24" fill="none" xmlns="http://www.w3.org/2000/svg">
<path d="M6.43533 4.5134C6.81743 4.5134 7.18153 4.6911 7.43243 4.9985L8.66083 6.5105C9.03083 6.9656 9.08353 7.6006 8.78873 8.0962L7.78973 9.7925C7.16673 10.8301 7.70063 12.1138 9.53253 13.9658C11.3273 15.7409 12.2586 15.9463 12.803 15.9463C13.1085 15.9463 13.4057 15.8704 13.6962 15.7068L15.386 14.7007C15.5974 14.5772 15.8394 14.512 16.0858 14.512C16.4105 14.512 16.7287 14.6255 16.9834 14.8328L18.4926 16.0594C18.9972 16.471 19.1257 17.1685 18.7762 17.7056L18.6522 17.9043C18.0237 18.8804 16.9481 19.4866 15.8453 19.4866C15.6692 19.4866 15.492 19.471 15.3227 19.4407C13.1706 19.0498 10.8232 17.6013 8.35083 15.1416C5.88403 12.6621 4.43823 10.3179 4.05383 8.1748C3.82883 6.9175 4.44593 5.5776 5.61783 4.8223L5.79633 4.701C5.98763 4.5784 6.20833 4.5134 6.43533 4.5134ZM6.43533 3.0135C5.93543 3.0135 5.43313 3.1519 4.98643 3.4385L4.77723 3.5801C3.18473 4.606 2.23333 6.5156 2.57743 8.439C3.02283 10.9224 4.60863 13.5069 7.28763 16.1995C9.98693 18.8853 12.5647 20.4641 15.0548 20.9165C15.3194 20.9639 15.5836 20.9866 15.8454 20.9866C17.4866 20.9866 19.0289 20.0901 19.9134 18.7166L20.0484 18.5005C20.8043 17.3399 20.5411 15.7944 19.441 14.897L17.9295 13.6687C17.3947 13.2332 16.7411 13.012 16.086 13.012C15.5837 13.012 15.0806 13.1421 14.6296 13.4056L12.929 14.4181C12.8954 14.4369 12.8533 14.4464 12.8031 14.4464C12.4392 14.4464 11.6487 13.9491 10.5874 12.8995C9.39293 11.6917 8.91383 10.8346 9.07583 10.5648L10.0813 8.8575C10.6953 7.825 10.5874 6.5023 9.82483 5.5643L8.59673 4.0528C8.04253 3.3736 7.24183 3.0135 6.43533 3.0135Z" fill="#757676"/>
<path d="M17.0199 3.0215C16.748 2.9723 16.488 3.1531 16.4391 3.425C16.39 3.6966 16.5707 3.9566 16.8426 4.0058C18.7665 4.3419 20.3476 6.1607 20.4817 8.1166C20.4926 8.2681 20.4955 8.4199 20.4896 8.5716C20.4785 8.8476 20.6934 9.0801 20.9695 9.091C21.2454 9.1019 21.478 8.8872 21.489 8.6112C21.4964 8.4207 21.4927 8.231 21.4789 8.0438C21.293 5.6195 19.4347 3.4678 17.0199 3.0215Z" fill="#757676"/>
<path d="M16.3129 5.2013C16.041 5.1524 15.781 5.3329 15.7322 5.6048C15.6833 5.8767 15.8639 6.1367 16.1358 6.1856C17.2251 6.3707 18.145 7.4261 18.2175 8.5397L18.222 8.7989C18.2113 9.0748 18.4263 9.3071 18.7024 9.3178C18.9783 9.3285 19.2107 9.1135 19.2214 8.8376C19.226 8.7134 19.2237 8.5895 19.2148 8.467C19.0904 6.8849 17.8933 5.4966 16.3129 5.2013Z" fill="#757676"/>
</svg>
