<svg width="24" height="24" viewBox="0 0 24 24" fill="none" xmlns="http://www.w3.org/2000/svg">
<path d="M6.51986 4.51333C6.90196 4.51333 7.26606 4.69103 7.51696 4.99843L8.74536 6.51043C9.11536 6.96553 9.16806 7.60053 8.87326 8.09613L7.87426 9.79243C7.25126 10.83 7.78516 12.1137 9.61706 13.9657C11.4119 15.7408 12.3432 15.9462 12.8876 15.9462C13.1931 15.9462 13.4903 15.8703 13.7808 15.7067L15.4706 14.7006C15.682 14.5771 15.924 14.5119 16.1704 14.5119C16.4951 14.5119 16.8133 14.6254 17.068 14.8327L18.5772 16.0593C19.0818 16.4709 19.2103 17.1684 18.8608 17.7055L18.7368 17.9042C18.1083 18.8803 17.0327 19.4865 15.9299 19.4865C15.7538 19.4865 15.5766 19.4709 15.4073 19.4406C13.2552 19.0497 10.9078 17.6012 8.43536 15.1415C5.96856 12.662 4.52276 10.3178 4.13836 8.17473C3.91336 6.91743 4.53046 5.57753 5.70236 4.82223L5.88086 4.70093C6.07216 4.57833 6.29286 4.51333 6.51986 4.51333ZM6.51986 3.01343C6.01996 3.01343 5.51766 3.15183 5.07096 3.43843L4.86176 3.58003C3.26926 4.60593 2.31786 6.51553 2.66196 8.43893C3.10736 10.9223 4.69316 13.5068 7.37216 16.1994C10.0715 18.8852 12.6493 20.464 15.1394 20.9164C15.404 20.9638 15.6682 20.9865 15.93 20.9865C17.5712 20.9865 19.1135 20.09 19.998 18.7165L20.133 18.5004C20.8889 17.3398 20.6257 15.7943 19.5256 14.8969L18.0141 13.6686C17.4793 13.2331 16.8257 13.0119 16.1706 13.0119C15.6683 13.0119 15.1652 13.142 14.7142 13.4055L13.0136 14.418C12.98 14.4368 12.9379 14.4463 12.8877 14.4463C12.5238 14.4463 11.7333 13.949 10.672 12.8994C9.47746 11.6916 8.99836 10.8345 9.16036 10.5647L10.1659 8.85743C10.7799 7.82493 10.672 6.50223 9.90936 5.56423L8.68126 4.05273C8.12706 3.37353 7.32636 3.01343 6.51986 3.01343Z" fill="#757676"/>
<path d="M21.2619 4.20993C21.0666 4.01483 20.7501 4.01483 20.5547 4.20993L18.9509 5.81373L17.347 4.20993C17.1517 4.01483 16.8352 4.01483 16.6398 4.20993C16.4446 4.40523 16.4446 4.72193 16.6398 4.91723L18.2436 6.52103L16.6398 8.12483C16.4446 8.32013 16.4446 8.63683 16.6398 8.83213C16.8351 9.02723 17.1516 9.02723 17.347 8.83213L18.9509 7.22833L20.5547 8.83213C20.75 9.02723 21.0665 9.02723 21.2619 8.83213C21.4571 8.63683 21.4571 8.32013 21.2619 8.12483L19.6581 6.52103L21.2619 4.91723C21.4571 4.72193 21.4571 4.40523 21.2619 4.20993Z" fill="#757676"/>
</svg>
