<svg width="22" height="22" viewBox="0 0 22 22" fill="none" xmlns="http://www.w3.org/2000/svg">
<rect width="22" height="22" rx="11" fill="#F5F6F7"/>
<g clip-path="url(#clip0_39_16008)">
<path d="M11.8008 11L15.7041 7.09632C15.9255 6.87558 15.9255 6.51625 15.7041 6.29552C15.4828 6.07418 15.1234 6.07418 14.9033 6.29552L11 10.1991L7.09667 6.29552C6.8766 6.07418 6.51593 6.07418 6.29587 6.29552C6.07453 6.51625 6.07453 6.87558 6.29587 7.09632L10.1992 11L6.29587 14.9037C6.07453 15.1244 6.07453 15.4837 6.29587 15.7044C6.40653 15.8151 6.55107 15.8705 6.69627 15.8705C6.84147 15.8705 6.9866 15.8151 7.09667 15.7044L11 11.8008L14.9033 15.7044C15.0133 15.8151 15.1585 15.8705 15.3037 15.8705C15.4489 15.8705 15.5935 15.8151 15.7041 15.7044C15.9255 15.4837 15.9255 15.1244 15.7041 14.9037L11.8008 11Z" fill="#757676"/>
</g>
<defs>
<clipPath id="clip0_39_16008">
<rect width="16" height="16" fill="white" transform="translate(3 3)"/>
</clipPath>
</defs>
</svg>
