<svg width="24" height="24" viewBox="0 0 24 24" fill="none" xmlns="http://www.w3.org/2000/svg">
<path d="M19.6687 4.47358C18.5305 3.39348 16.9587 3.21088 15.4309 3.17478C14.1868 3.14258 13.3059 3.14258 12.0657 3.17478C10.5369 3.21088 8.96513 3.39258 7.82693 4.47358C7.35573 4.92038 7.06803 5.46188 6.88633 6.03068C5.84423 6.22798 5.01963 6.60708 4.39083 7.20398C3.14033 8.39048 3.10473 10.2177 3.07883 11.5526L3.07593 14.9647L3.07883 15.1122C3.10473 16.4462 3.14033 18.2733 4.39083 19.4696C5.57833 20.5966 7.22333 20.787 8.82243 20.8251C9.47623 20.8417 10.0343 20.8495 10.5919 20.8495C11.1495 20.8495 11.7081 20.8417 12.36 20.8251C13.9606 20.787 15.6056 20.5966 16.7931 19.4696C17.4991 18.8002 17.8038 17.9315 17.9478 17.1517C18.5775 16.9603 19.1665 16.6651 19.6686 16.1883C20.8649 15.0545 20.9005 13.3299 20.924 12.1737V8.47348C20.9006 7.33288 20.865 5.60838 19.6687 4.47358ZM19.4116 8.06298C18.6551 8.05448 18.1089 8.02249 17.6784 7.89839C16.4582 7.56149 15.5373 6.43838 15.4387 5.16208C15.4253 5.00048 15.433 4.83858 15.4354 4.67698C16.8342 4.71238 17.9168 4.87818 18.6364 5.56148C19.2372 6.13178 19.3715 7.05828 19.4116 8.06298ZM15.761 18.3818C14.9871 19.1162 13.8279 19.29 12.3235 19.3252C11.0442 19.3584 10.1423 19.3584 8.85913 19.3252C7.35623 19.29 6.19703 19.1152 5.42553 18.3838C4.62763 17.6211 4.60183 16.2725 4.57883 15.084L4.57593 11.7315L4.57883 11.5821C4.60173 10.3936 4.62763 9.04689 5.42303 8.29209C5.73203 7.99908 6.12193 7.78868 6.60463 7.63848C6.58113 7.98788 6.57403 8.32549 6.56803 8.63479L6.56513 11.8799L6.56803 12.0205C6.59243 13.2949 6.62613 15.041 7.82633 16.1885C8.96453 17.2686 10.5363 17.4512 12.0641 17.4873C12.6862 17.5029 13.2169 17.5107 13.7477 17.5107C14.278 17.5107 14.8092 17.5029 15.4293 17.4873C15.7287 17.4802 16.0293 17.4644 16.3285 17.4404C16.1954 17.8342 16.0117 18.144 15.761 18.3818ZM18.6365 15.1006C17.909 15.791 16.8142 15.9541 15.3928 15.9873C14.176 16.0176 13.3196 16.0176 12.1008 15.9873C10.6809 15.9541 9.58623 15.791 8.86113 15.1025C8.11403 14.3877 8.08963 13.1152 8.06763 11.9921L8.06523 8.80658L8.06763 8.66298C8.08963 7.54088 8.11403 6.26848 8.85963 5.56138C9.58623 4.87098 10.6809 4.70788 12.1023 4.67468C12.7107 4.65908 13.2288 4.65128 13.7478 4.65128C13.8001 4.65128 13.8546 4.65228 13.907 4.65248C13.9043 4.86388 13.8964 5.07628 13.9138 5.28408C14.0627 7.21768 15.4123 8.86028 17.2629 9.37098C17.8596 9.54308 18.5242 9.58238 19.424 9.59168V12.1581C19.4001 13.3378 19.3216 14.4512 18.6365 15.1006Z" fill="#757676"/>
</svg>
