<svg width="24" height="24" viewBox="0 0 24 24" fill="none" xmlns="http://www.w3.org/2000/svg">
<path d="M12 3.5C16.6869 3.5 20.5 7.313 20.5 12C20.5 16.687 16.6869 20.5 12 20.5C7.3131 20.5 3.5 16.687 3.5 12C3.5 7.313 7.3132 3.5 12 3.5ZM12 2C6.4772 2 2 6.477 2 12C2 17.523 6.4772 22 12 22C17.5228 22 22 17.5229 22 12C22 6.4771 17.523 2 12 2Z" fill="#757676"/>
<path d="M14.6758 10.2599C15.3394 10.2599 15.8774 9.72191 15.8774 9.05829C15.8774 8.39466 15.3394 7.85669 14.6758 7.85669C14.0122 7.85669 13.4742 8.39466 13.4742 9.05829C13.4742 9.72191 14.0122 10.2599 14.6758 10.2599Z" fill="#757676"/>
<path d="M9.32416 10.2598C9.98786 10.2598 10.5259 9.72187 10.5259 9.05817C10.5259 8.39447 9.98786 7.85657 9.32416 7.85657C8.66046 7.85657 8.12266 8.39467 8.12266 9.05817C8.12266 9.72167 8.66056 10.2598 9.32416 10.2598Z" fill="#757676"/>
<path d="M15.1247 14.1308C14.3762 15.0162 13.2502 15.5761 12.0002 15.5761C10.7502 15.5761 9.624 15.0163 8.8756 14.1306C8.6497 13.8634 8.25 13.8298 7.9828 14.0555C7.7156 14.2813 7.682 14.6811 7.9078 14.9484C8.8889 16.1108 10.3674 16.8428 12.0001 16.8428C13.6328 16.8428 15.1111 16.1106 16.0923 14.9482C16.318 14.681 16.2843 14.2813 16.0171 14.0556C15.7499 13.8298 15.3503 13.8635 15.1247 14.1308Z" fill="#757676"/>
</svg>
