<svg width="30" height="31" viewBox="0 0 30 31" fill="none" xmlns="http://www.w3.org/2000/svg">
<rect y="0.5" width="30" height="30" rx="10" fill="#3A3FE0"/>
<g clip-path="url(#clip0_39_16480)">
<path d="M24.1769 12.5478V12.5078C24.1573 11.8555 24.1476 11.042 24.0115 10.249C23.8755 9.44633 23.5838 8.58303 22.942 7.91013C21.756 6.65573 20.0643 6.52533 18.7614 6.49513C18.1489 6.48003 16.5715 6.47223 14.9941 6.47223C13.4167 6.47223 11.8392 6.48003 11.2267 6.49513C9.91408 6.52543 8.22238 6.65573 7.02638 7.91013C6.39438 8.58303 6.11258 9.44623 5.96658 10.249C5.83068 11.042 5.83068 11.8755 5.81108 12.5376C5.80138 13.5615 5.80138 14.5957 5.81108 15.6191C5.82088 16.2719 5.83068 17.1147 5.96658 17.9077C6.10278 18.7109 6.39438 19.5742 7.03618 20.2466C8.22238 21.5015 9.91398 21.6319 11.2168 21.6616C12.0238 21.6821 14.4448 21.6919 16.3794 21.6919L19.967 24.3818C20.0957 24.4785 20.2491 24.5278 20.4038 24.5278C20.5062 24.5278 20.6091 24.5063 20.7059 24.4624C20.9489 24.352 21.1143 24.1113 21.1433 23.8403L21.3865 21.2602C21.6878 21.1498 21.9795 21.0097 22.2517 20.8286C22.4949 20.668 22.7281 20.4873 22.9419 20.2568C23.5837 19.5844 23.8754 18.7212 24.0114 17.9179C24.1475 17.1147 24.1572 16.2817 24.167 15.6293C24.167 15.1576 24.1865 14.7362 24.1962 14.2543C24.1962 13.682 24.1769 13.12 24.1769 12.5478ZM11.2567 15.1108C10.6366 15.1108 10.1341 14.6025 10.1341 13.9765C10.1341 13.3495 10.6367 12.8417 11.2567 12.8417C11.8767 12.8417 12.3794 13.3495 12.3794 13.9765C12.3794 14.6025 11.8767 15.1108 11.2567 15.1108ZM15 15.1108C14.3799 15.1108 13.8774 14.6025 13.8774 13.9765C13.8774 13.3495 14.38 12.8417 15 12.8417C15.62 12.8417 16.1227 13.3495 16.1227 13.9765C16.1227 14.6025 15.6201 15.1108 15 15.1108ZM18.7433 15.1108C18.1232 15.1108 17.6206 14.6025 17.6206 13.9765C17.6206 13.3495 18.1232 12.8417 18.7433 12.8417C19.3634 12.8417 19.8659 13.3495 19.8659 13.9765C19.8659 14.6025 19.3633 15.1108 18.7433 15.1108Z" fill="white"/>
</g>
<defs>
<clipPath id="clip0_39_16480">
<rect width="24" height="24" fill="white" transform="translate(3 3.5)"/>
</clipPath>
</defs>
</svg>
