<svg width="30" height="30" viewBox="0 0 30 30" fill="none" xmlns="http://www.w3.org/2000/svg">
<rect width="30" height="30" rx="10" fill="#E06E3A"/>
<g clip-path="url(#clip0_39_16474)">
<path d="M14.54 12.965C14.82 13.135 15.18 13.135 15.46 12.965L23.86 7.665C23.35 7.255 22.71 7.005 22 7.005H8C7.27 7.005 6.62 7.275 6.1 7.705L14.54 12.975V12.965Z" fill="white"/>
<path d="M24.77 8.855L16.26 14.235V14.225C15.88 14.465 15.44 14.585 15 14.585C14.56 14.585 14.13 14.465 13.75 14.225L5.21 8.905C5.08 9.245 5 9.60501 5 9.99501V19.995C5 21.655 6.34 22.995 8 22.995H22C23.66 22.995 25 21.655 25 19.995V9.99501C25 9.59501 24.92 9.205 24.77 8.855Z" fill="white"/>
</g>
<defs>
<clipPath id="clip0_39_16474">
<rect width="24" height="24" fill="white" transform="translate(3 3)"/>
</clipPath>
</defs>
</svg>
