<svg width="16" height="16" viewBox="0 0 16 16" fill="none" xmlns="http://www.w3.org/2000/svg">
<path d="M7.23997 7.16674C7.44663 7.1534 7.91997 7.14674 8.25997 7.22674C8.49997 7.28674 8.66663 7.50674 8.6533 7.76007C8.63997 7.9534 8.5933 8.20007 8.5333 8.48007C8.44643 8.87099 8.38167 9.27518 8.33901 9.54138C8.3293 9.60199 8.32072 9.65556 8.3133 9.70007C8.26663 9.94007 8.3533 10.3334 8.65997 10.1801C8.96663 10.0267 9.23997 9.92674 9.14663 10.1801C9.06663 10.3934 8.63997 10.7001 8.14663 10.7201C7.6533 10.7401 7.03997 10.5267 7.10663 9.9534C7.15559 9.5324 7.26925 8.92447 7.33938 8.54932C7.36476 8.41362 7.38444 8.3083 7.3933 8.2534C7.39836 8.222 7.40527 8.18614 7.41268 8.14773C7.45399 7.93334 7.51059 7.63965 7.34663 7.60007C7.29799 7.58833 7.24513 7.58081 7.19283 7.57337C7.03724 7.55123 6.88659 7.52979 6.86663 7.40007C6.83997 7.26674 6.9733 7.1734 7.2533 7.16007L7.23997 7.16674Z" fill="#757676"/>
<path d="M8.6933 5.9734C8.6933 6.35632 8.38288 6.66674 7.99997 6.66674C7.61705 6.66674 7.30663 6.35632 7.30663 5.9734C7.30663 5.59049 7.61705 5.28007 7.99997 5.28007C8.38288 5.28007 8.6933 5.59049 8.6933 5.9734Z" fill="#757676"/>
<path fill-rule="evenodd" clip-rule="evenodd" d="M8.00001 1.33337C4.32001 1.33337 1.33334 4.32004 1.33334 8.00004C1.33334 11.68 4.32001 14.6667 8.00001 14.6667C11.68 14.6667 14.6667 11.68 14.6667 8.00004C14.6667 4.32004 11.68 1.33337 8.00001 1.33337ZM8.00001 2.33337C11.1267 2.33337 13.6667 4.87337 13.6667 8.00004C13.6667 11.1267 11.1267 13.6667 8.00001 13.6667C4.87334 13.6667 2.33334 11.1267 2.33334 8.00004C2.33334 4.87337 4.87334 2.33337 8.00001 2.33337Z" fill="#757676"/>
</svg>
