<svg width="32" height="32" viewBox="0 0 32 32" fill="none" xmlns="http://www.w3.org/2000/svg">
<rect width="32" height="32" rx="16" fill="#F5F6F7"/>
<g clip-path="url(#clip0_39_16168)">
<path d="M16.6148 17.6745L15.4948 18.7745C15.6148 19.0545 15.6848 19.3245 15.6948 19.5845C15.7248 20.2245 15.4148 20.6445 14.8148 21.2245C14.7748 21.2545 14.7448 21.2945 14.7148 21.3345L13.6348 22.3845C13.0348 22.9845 12.5948 23.2745 11.9548 23.2445C10.5348 23.1445 8.7148 21.2945 8.6648 19.8945C8.6348 19.2345 8.9248 18.8445 9.5748 18.2045C9.6548 18.1245 10.1448 17.6545 10.4548 17.3445L10.7548 17.0545C11.2948 16.5145 11.7148 16.2145 12.2948 16.2145H12.4048C12.6248 16.2345 12.8548 16.2845 13.0848 16.3845L14.2148 15.2745C13.6648 14.9545 13.0748 14.7645 12.5048 14.7245C11.0548 14.6245 10.1748 15.5145 9.6948 15.9945L9.4148 16.2745C9.0548 16.6245 8.5048 17.1545 8.5048 17.1645C7.8248 17.8145 7.1048 18.6245 7.1648 19.9545C7.2548 22.1245 9.6648 24.5845 11.8548 24.7345C11.9248 24.7445 11.9948 24.7445 12.0648 24.7445C13.3848 24.7445 14.2248 23.9145 14.6848 23.4645L15.8648 22.3145C15.8648 22.3145 15.9348 22.2345 15.9648 22.1945C16.6048 21.5645 17.2448 20.7745 17.1948 19.5145C17.1748 18.9045 16.9648 18.2745 16.6148 17.6745Z" fill="#757676"/>
<path d="M20.1548 7.26451C18.7048 7.15451 17.8148 8.06451 17.3448 8.53451L17.1548 8.71451C16.8148 9.05451 16.1548 9.70451 16.1448 9.71451C15.4748 10.3645 14.7548 11.1645 14.8148 12.4945C14.8348 13.0545 15.0148 13.6445 15.3148 14.2045L16.4548 13.0945C16.3648 12.8745 16.3148 12.6445 16.3048 12.4345C16.2848 11.7845 16.5848 11.3745 17.2248 10.7545C17.3148 10.6645 17.8948 10.0945 18.2048 9.79451L18.4048 9.60451C18.9448 9.06451 19.3548 8.75451 19.9448 8.75451C19.9748 8.75451 20.0148 8.76451 20.0548 8.76451C21.4748 8.86451 23.2848 10.7145 23.3448 12.1245C23.3648 12.7745 23.0748 13.1745 22.4648 13.7645C22.4248 13.8045 22.3948 13.8445 22.3648 13.8845L21.2848 14.9345C20.6748 15.5345 20.2448 15.8145 19.6048 15.7845C19.3448 15.7645 19.0648 15.6845 18.7848 15.5545L17.6648 16.6545C18.2548 17.0145 18.8948 17.2345 19.5048 17.2845C19.5748 17.2845 19.6448 17.2945 19.7148 17.2945C21.0248 17.2945 21.8748 16.4645 22.3348 16.0045L23.5148 14.8545C23.5148 14.8545 23.5848 14.7845 23.6148 14.7445C24.2548 14.1045 24.8948 13.3145 24.8348 12.0645C24.7448 9.88451 22.3448 7.42451 20.1548 7.26451Z" fill="#757676"/>
<path d="M12.9747 19.7142C12.7799 19.7142 12.5846 19.639 12.4376 19.4876C12.1485 19.1917 12.1544 18.7161 12.4513 18.4271L18.5216 12.5072C18.8185 12.2181 19.2931 12.2245 19.5821 12.5209C19.8711 12.8173 19.8653 13.2919 19.5684 13.5814L13.4981 19.5013C13.3526 19.6429 13.1636 19.7142 12.9747 19.7142Z" fill="#757676"/>
</g>
<defs>
<clipPath id="clip0_39_16168">
<rect width="24" height="24" fill="white" transform="translate(4 4)"/>
</clipPath>
</defs>
</svg>
