<svg width="24" height="24" viewBox="0 0 24 24" fill="none" xmlns="http://www.w3.org/2000/svg">
<path d="M18.8499 10.3278C19.0918 10.3278 19.3176 10.4234 19.4859 10.597C19.8192 10.9408 19.8106 11.4917 19.4667 11.825L11.5461 19.5023L10.3061 19.483L10.3254 18.243L18.2339 10.5774C18.4 10.4164 18.6187 10.3278 18.8499 10.3278ZM18.8499 8.82779C18.2519 8.82779 17.6533 9.05118 17.19 9.50028L9.11908 17.3232C8.93738 17.4993 8.83308 17.7404 8.82908 17.9934L8.79768 20.0052C8.78948 20.5321 9.20998 20.9659 9.73678 20.9741L11.7486 21.0055C11.7536 21.0055 11.7585 21.0056 11.7635 21.0056C12.0112 21.0056 12.2494 20.9093 12.4276 20.7366L20.5106 12.9019C21.4498 11.9915 21.4733 10.4921 20.5629 9.55278C20.0951 9.07018 19.4728 8.82779 18.8499 8.82779Z" fill="#757676"/>
<path d="M13.4472 2.99438H3.66978C3.17268 2.99438 2.76938 3.39768 2.76938 3.89478C2.76938 4.39188 3.17268 4.79518 3.66978 4.79518H7.65808V13.6722C7.65808 14.1693 8.06138 14.5726 8.55848 14.5726C9.05558 14.5726 9.45888 14.1693 9.45888 13.6722V4.79518H13.4472C13.9443 4.79518 14.3476 4.39188 14.3476 3.89478C14.3476 3.39768 13.9443 2.99438 13.4472 2.99438Z" fill="#757676"/>
</svg>
