<svg width="24" height="24" viewBox="0 0 24 24" fill="none" xmlns="http://www.w3.org/2000/svg">
<path d="M12.014 3.44995C15.354 3.44995 18.074 6.16995 18.074 9.50995C18.074 11.49 15.754 15.6399 12.004 20.3799C5.96402 13.5799 5.93402 10.09 5.94402 9.74995C5.96402 9.64995 5.96402 9.62995 5.96402 9.50995C5.96402 6.16995 8.68402 3.44995 12.024 3.44995M12.014 1.94995C7.84402 1.94995 4.45402 5.32995 4.45402 9.50995C4.45402 9.50995 3.75402 13.44 11.074 21.6C11.144 21.68 11.364 21.92 11.714 22.01C11.814 22.04 11.914 22.0499 12.004 22.0499C12.234 22.0499 12.404 21.9799 12.444 21.9699C12.714 21.8599 12.884 21.67 12.944 21.6C14.964 19.07 19.564 12.95 19.564 9.50995C19.564 5.33995 16.184 1.94995 12.004 1.94995H12.014Z" fill="#757676"/>
<path d="M12.014 8.48995C12.574 8.48995 13.034 8.94995 13.034 9.50995C13.034 10.07 12.574 10.53 12.014 10.53C11.454 10.53 10.994 10.07 10.994 9.50995C10.994 8.94995 11.454 8.48995 12.014 8.48995ZM12.014 6.98995C10.624 6.98995 9.49402 8.11995 9.49402 9.50995C9.49402 10.9 10.624 12.03 12.014 12.03C13.404 12.03 14.534 10.9 14.534 9.50995C14.534 8.11995 13.404 6.98995 12.014 6.98995Z" fill="#757676"/>
</svg>
