<svg width="24" height="24" viewBox="0 0 24 24" fill="none" xmlns="http://www.w3.org/2000/svg">
<path d="M21.725 5.76C21.515 5.29 21.185 4.89 20.775 4.59C20.275 4.22 19.665 4 18.995 4H5.005C4.315 4 3.675 4.24 3.175 4.63C2.775 4.93 2.455 5.34 2.245 5.81C2.095 6.18 2.005 6.58 2.005 7V17C2.005 18.66 3.345 20 5.005 20H18.995C20.655 20 21.995 18.66 21.995 17V7C21.995 6.56 21.895 6.14 21.725 5.76ZM5.005 5.5H18.995C19.0883 5.5 19.1757 5.5267 19.2654 5.5437L12.465 9.84C12.185 10.0201 11.825 10.0201 11.545 9.85L4.6616 5.5572C4.7745 5.5301 4.8873 5.5 5.005 5.5ZM20.495 17C20.495 17.83 19.825 18.5 18.995 18.5H5.005C4.175 18.5 3.505 17.83 3.505 17V7C3.505 6.8818 3.5259 6.756 3.5569 6.6296L10.7449 11.12C11.1249 11.36 11.5549 11.47 11.9949 11.47C12.4349 11.47 12.8749 11.35 13.2649 11.11L20.4248 6.5822C20.4659 6.7215 20.4949 6.8608 20.4949 7L20.495 17Z" fill="#757676"/>
</svg>
