<svg width="24" height="25" viewBox="0 0 24 25" fill="none" xmlns="http://www.w3.org/2000/svg">
<path d="M5.74944 9.00668H4.93288C4.60192 9.00668 4.33313 8.73789 4.33313 8.40693V6.79108C4.33313 6.46012 4.60192 6.19133 4.93288 6.19133H5.74944V9.00668Z" fill="#EDEFF0"/>
<path d="M5.74944 13.7853H4.93288C4.60192 13.7853 4.33313 13.5165 4.33313 13.1855V11.5697C4.33313 11.2387 4.60192 10.9699 4.93288 10.9699H5.74944V13.7853Z" fill="#EDEFF0"/>
<path d="M5.74944 18.5641H4.93288C4.60192 18.5641 4.33313 18.2953 4.33313 17.9643V16.3485C4.33313 16.0175 4.60192 15.7487 4.93288 15.7487H5.74944V18.5641Z" fill="#EDEFF0"/>
<path d="M17.6677 4.90247C17.9432 4.90247 18.1675 5.12668 18.1675 5.40226V19.3529C18.1675 19.6285 17.9432 19.8527 17.6677 19.8527H7.25218C6.97669 19.8527 6.75239 19.6285 6.75239 19.3529V5.40226C6.75239 5.12668 6.97669 4.90247 7.25218 4.90247H17.6677ZM17.6677 3.40308H7.25218C6.14794 3.40308 5.25301 4.29811 5.25301 5.40226V19.3529C5.25301 20.457 6.14794 21.3521 7.25218 21.3521H17.6677C18.7718 21.3521 19.6669 20.457 19.6669 19.3529V5.40226C19.6669 4.29811 18.7718 3.40308 17.6677 3.40308Z" fill="#EDEFF0"/>
<path d="M12.4614 8.01669C12.2496 8.01669 12.0309 8.04587 11.8091 8.10795C11.0742 8.31396 10.4797 8.92132 10.2854 9.65942C9.88745 11.1711 11.0149 12.5301 12.4613 12.5301C12.673 12.5301 12.8915 12.501 13.113 12.4389C13.8476 12.2332 14.4418 11.6263 14.6366 10.8887C15.0359 9.37653 13.9084 8.01669 12.4614 8.01669Z" fill="#EDEFF0"/>
<path d="M8.37788 14.8975C9.08519 15.9831 10.6481 16.7386 12.4679 16.7386C12.8021 16.7386 13.145 16.713 13.4929 16.6594C14.8454 16.4512 15.9514 15.8176 16.5253 14.9667C16.6455 14.7884 16.6448 14.5434 16.5239 14.3656C16.011 13.6118 15.081 13.0248 13.9422 12.7473L13.8326 12.7344C13.7315 12.7344 13.6308 12.766 13.5416 12.8172C13.3508 12.9267 13.1426 13.0098 12.9203 13.0591C12.7451 13.0977 12.5724 13.1161 12.4041 13.1161C12.0023 13.1161 11.625 13.0114 11.2969 12.8288C11.2094 12.7801 11.1117 12.7504 11.0134 12.7504L10.901 12.764C9.7743 13.046 8.86638 13.6319 8.37708 14.3865C8.27812 14.5393 8.27852 14.7451 8.37788 14.8975Z" fill="#EDEFF0"/>
</svg>
