<svg width="24" height="25" viewBox="0 0 24 25" fill="none" xmlns="http://www.w3.org/2000/svg">
<path d="M17.0235 21.2298C16.753 21.2298 16.4825 21.2259 16.1651 21.2181C15.3204 21.1986 14.4454 21.0931 13.7794 20.4603C13.0606 19.7796 13.0421 18.8089 13.0294 18.0999L13.0274 16.4612C13.042 15.6663 13.0606 14.6966 13.7774 14.011C14.4454 13.3772 15.3204 13.2717 16.1661 13.2522C16.7989 13.2366 17.2472 13.2366 17.8819 13.2522C18.7266 13.2717 19.6016 13.3772 20.2676 14.009C20.9854 14.6897 21.0049 15.6916 21.0166 16.2902V18.1642C21.0049 18.7785 20.9854 19.7814 20.2666 20.4611C19.6016 21.0929 18.7266 21.1984 17.8809 21.2179C17.5645 21.2257 17.294 21.2298 17.0235 21.2298ZM17.0235 14.7405C16.7647 14.7405 16.5059 14.7444 16.2022 14.7522C15.6553 14.7649 15.1094 14.8157 14.8126 15.0969C14.5489 15.3489 14.5382 15.9084 14.5284 16.4026L14.5274 18.013C14.5381 18.5638 14.5489 19.1224 14.8116 19.3714C15.0928 19.639 15.5704 19.7034 16.2012 19.7181C16.8106 19.7337 17.2373 19.7337 17.8448 19.7181C18.3917 19.7054 18.9376 19.6546 19.2344 19.3724C19.4776 19.1429 19.5069 18.6624 19.5166 18.1497V16.3128C19.5068 15.8021 19.4766 15.3265 19.2354 15.097C18.9542 14.8314 18.4766 14.7669 17.8458 14.7523C17.5411 14.7445 17.2823 14.7405 17.0235 14.7405Z" fill="#EDEFF0"/>
<path d="M6.97856 21.2298C4.77546 21.2298 2.98346 19.4378 2.98346 17.2347C2.98346 15.0316 4.77546 13.2406 6.97856 13.2406C9.18166 13.2406 10.9727 15.0326 10.9727 17.2347C10.9727 19.4368 9.18066 21.2298 6.97856 21.2298ZM6.97856 14.7405C5.60256 14.7405 4.48346 15.8596 4.48346 17.2346C4.48346 18.6106 5.60256 19.7297 6.97856 19.7297C8.35356 19.7297 9.47266 18.6106 9.47266 17.2346C9.47266 15.8596 8.35356 14.7405 6.97856 14.7405Z" fill="#EDEFF0"/>
<path d="M15.5596 11.2152H8.44046C8.17286 11.2152 7.92586 11.0726 7.79206 10.8412C7.65726 10.6098 7.65636 10.3246 7.79006 10.0922L11.3487 3.87537C11.6163 3.40857 12.3839 3.40857 12.6514 3.87537L16.21 10.0922C16.3438 10.3246 16.3428 10.6098 16.208 10.8412C16.0742 11.0726 15.8271 11.2152 15.5596 11.2152ZM9.73436 9.71517H14.2656L12 5.75717L9.73436 9.71517Z" fill="#EDEFF0"/>
</svg>
