<svg width="24" height="25" viewBox="0 0 24 25" fill="none" xmlns="http://www.w3.org/2000/svg">
<path d="M8.5934 15.7079C8.8295 15.9547 8.8262 16.3462 8.5834 16.589C8.3373 16.8351 7.9382 16.8351 7.6921 16.589C5.3129 14.2098 5.3129 10.3523 7.6921 7.97309C9.2424 6.42279 11.4202 5.88339 13.4053 6.35219C13.7441 6.43219 13.9539 6.77169 13.8739 7.11039C13.7939 7.44919 13.4545 7.65889 13.1157 7.57889C10.7383 7.01749 8.0248 8.27689 7.1825 11.3478C6.7448 12.9438 7.4494 14.512 8.5934 15.7079Z" fill="#EDEFF0"/>
<path d="M16.9479 9.87899C17.2765 9.76409 17.636 9.93729 17.7509 10.2659C18.4986 12.404 18.0189 14.8783 16.3081 16.589C16.062 16.8351 15.663 16.8351 15.4168 16.589C15.1706 16.3429 15.1707 15.9439 15.4168 15.6977C16.7724 14.342 17.155 12.3804 16.5611 10.6819C16.4461 10.3533 16.6193 9.99389 16.9479 9.87899Z" fill="#EDEFF0"/>
<path d="M15.4913 7.59919C15.6957 7.42429 15.9952 7.41849 16.2062 7.58539C16.4172 7.75229 16.4804 8.04509 16.3572 8.28419L16.2408 8.50939C16.1666 8.65288 16.0603 8.85828 15.9314 9.10629C15.6737 9.60219 15.326 10.2687 14.9661 10.9508C14.6065 11.6324 14.2335 12.3315 13.9257 12.8918C13.7719 13.1717 13.6329 13.4197 13.5193 13.6145C13.4135 13.7959 13.3095 13.9666 13.2321 14.0644C12.6538 14.7953 11.5926 14.919 10.8617 14.3408C10.1308 13.7625 10.007 12.7013 10.5853 11.9704C10.6627 11.8726 10.805 11.7321 10.957 11.5874C11.1205 11.4319 11.3299 11.2396 11.5668 11.0256C12.0412 10.5972 12.6358 10.0734 13.2164 9.56649C13.7973 9.05929 14.3661 8.56759 14.7893 8.20269C15.001 8.02019 15.1764 7.86939 15.299 7.76419L15.4913 7.59919Z" fill="#EDEFF0"/>
<path d="M12 4.77769C16.1907 4.77769 19.6001 8.18699 19.6001 12.3777C19.6001 16.5684 16.1907 19.9777 12 19.9777C7.8093 19.9777 4.3999 16.5684 4.3999 12.3777C4.3999 8.18699 7.8093 4.77769 12 4.77769ZM12 3.37769C7.0295 3.37769 3 7.40709 3 12.3777C3 17.3483 7.0295 21.3777 12 21.3777C16.9705 21.3777 21 17.3483 21 12.3777C21 7.40709 16.9707 3.37769 12 3.37769Z" fill="#EDEFF0"/>
</svg>
