<svg width="24" height="24" viewBox="0 0 24 24" fill="none" xmlns="http://www.w3.org/2000/svg">
<path d="M5.28431 3.57998L5.49351 3.43838C6.66101 2.68938 8.20631 2.95258 9.10371 4.05268L10.332 5.56418C11.0945 6.50218 11.2024 7.82488 10.5883 8.85738L9.58281 10.5647C9.42091 10.8345 9.89991 11.6917 11.0944 12.8994C12.3023 14.094 13.1595 14.573 13.4361 14.418L15.1367 13.4055C16.1759 12.7983 17.4918 12.8994 18.4365 13.6687L19.9481 14.897C21.0481 15.7945 21.3113 17.3399 20.5555 18.5005L20.4205 18.7166C19.3949 20.3091 17.4851 21.2605 15.5619 20.9166C13.0717 20.4642 10.4939 18.8854 7.79471 16.1996C5.11561 13.507 3.52981 10.9225 3.08441 8.43908C2.74031 6.51578 3.69171 4.60588 5.28431 3.57998Z" fill="#00B885"/>
</svg>
