<svg width="28" height="28" viewBox="0 0 28 28" fill="none" xmlns="http://www.w3.org/2000/svg">
<rect width="28" height="28" rx="14" fill="#00B885"/>
<g clip-path="url(#clip0_39_16172)">
<path d="M20.3877 8.65606C20.1195 8.38393 19.7152 8.29473 19.3568 8.42559L8.00296 12.5356C7.63836 12.6613 7.38676 12.977 7.34603 13.3592C7.30596 13.7342 7.47816 14.0871 7.78483 14.2726L9.81476 15.5831C10.0589 15.7381 10.376 15.7427 10.6227 15.5916L17.5156 11.0765L11.0622 16.2068C10.9284 16.3214 10.8382 16.4803 10.8082 16.6521L10.5107 18.337C10.4362 18.7589 10.6201 19.1638 10.9798 19.3695C11.3378 19.5739 11.7734 19.5329 12.0901 19.2615L13.5719 17.9907L15.8476 19.4783C16.0048 19.5811 16.1894 19.6339 16.376 19.6339C16.488 19.6339 16.6009 19.615 16.709 19.5759C16.9987 19.4711 17.2168 19.2433 17.3018 18.9672L20.5934 9.66053C20.7305 9.30959 20.6517 8.92426 20.3877 8.65606Z" fill="white"/>
</g>
<defs>
<clipPath id="clip0_39_16172">
<rect width="16" height="16" fill="white" transform="translate(6 6)"/>
</clipPath>
</defs>
</svg>
