<svg width="24" height="24" viewBox="0 0 24 24" fill="none" xmlns="http://www.w3.org/2000/svg">
<path d="M12.2082 5.95093C13.298 5.95093 14.1815 5.06746 14.1815 3.97763C14.1815 2.88781 13.298 2.00433 12.2082 2.00433C11.1183 2.00433 10.2349 2.88781 10.2349 3.97763C10.2349 5.06746 11.1183 5.95093 12.2082 5.95093Z" fill="#757676"/>
<path d="M6.47906 8.15893C7.56889 8.15893 8.45236 7.27546 8.45236 6.18563C8.45236 5.09581 7.56889 4.21233 6.47906 4.21233C5.38924 4.21233 4.50576 5.09581 4.50576 6.18563C4.50576 7.27546 5.38924 8.15893 6.47906 8.15893Z" fill="#757676"/>
<path d="M3.98706 13.7145C5.08467 13.7145 5.97446 12.8247 5.97446 11.7271C5.97446 10.6295 5.08467 9.73973 3.98706 9.73973C2.88945 9.73973 1.99966 10.6295 1.99966 11.7271C1.99966 12.8247 2.88945 13.7145 3.98706 13.7145Z" fill="#757676"/>
<path d="M6.19586 19.5042C7.28569 19.5042 8.16916 18.6208 8.16916 17.5309C8.16916 16.4411 7.28569 15.5576 6.19586 15.5576C5.10604 15.5576 4.22256 16.4411 4.22256 17.5309C4.22256 18.6208 5.10604 19.5042 6.19586 19.5042Z" fill="#757676"/>
<path d="M11.8077 21.9956C12.8975 21.9956 13.781 21.1122 13.781 20.0223C13.781 18.9325 12.8975 18.049 11.8077 18.049C10.7178 18.049 9.83436 18.9325 9.83436 20.0223C9.83436 21.1122 10.7178 21.9956 11.8077 21.9956Z" fill="#757676"/>
<path d="M17.5367 19.7875C18.6265 19.7875 19.51 18.9041 19.51 17.8142C19.51 16.7244 18.6265 15.8409 17.5367 15.8409C16.4468 15.8409 15.5634 16.7244 15.5634 17.8142C15.5634 18.9041 16.4468 19.7875 17.5367 19.7875Z" fill="#757676"/>
<path d="M20.0271 14.1736C21.1169 14.1736 22.0004 13.2902 22.0004 12.2003C22.0004 11.1105 21.1169 10.227 20.0271 10.227C18.9372 10.227 18.0538 11.1105 18.0538 12.2003C18.0538 13.2902 18.9372 14.1736 20.0271 14.1736Z" fill="#757676"/>
<path d="M12.008 16.5796C14.5373 16.5796 16.5877 14.5292 16.5877 11.9999C16.5877 9.47063 14.5373 7.42023 12.008 7.42023C9.47867 7.42023 7.42826 9.47063 7.42826 11.9999C7.42826 14.5292 9.47867 16.5796 12.008 16.5796Z" fill="#757676"/>
<path d="M17.8199 8.44223C18.9097 8.44223 19.7932 7.55876 19.7932 6.46893C19.7932 5.37911 18.9097 4.49563 17.8199 4.49563C16.73 4.49563 15.8466 5.37911 15.8466 6.46893C15.8466 7.55876 16.73 8.44223 17.8199 8.44223Z" fill="#757676"/>
</svg>
