<svg width="24" height="24" viewBox="0 0 24 24" fill="none" xmlns="http://www.w3.org/2000/svg">
<path d="M18.6169 11.6498L11.6169 18.2598C10.2369 19.5698 8.04686 19.7098 6.61686 18.4598C4.97686 17.0198 4.95686 14.5298 6.50686 13.0698L14.6869 5.34976C15.5569 4.52976 16.9269 4.40976 17.8269 5.18976C18.8669 6.08976 18.8769 7.64976 17.9069 8.56976L10.9569 15.1298C10.5969 15.4698 10.0169 15.4598 9.66686 15.0898C9.31686 14.7198 9.33686 14.1498 9.70686 13.7998L15.4969 8.33976C15.7669 8.07975 15.7769 7.64976 15.5269 7.37976C15.2769 7.10976 14.8369 7.09976 14.5669 7.34976L8.86686 12.7298C7.99686 13.5498 7.79686 14.9098 8.52686 15.8498C9.36686 16.9398 10.9269 17.0398 11.8969 16.1198L18.7369 9.66975C20.1169 8.35976 20.3969 6.18976 19.2269 4.68976C17.8969 2.96976 15.3969 2.80976 13.8469 4.26976L5.72686 11.9298C3.82686 13.7198 3.43686 16.7198 5.04686 18.7798C6.90686 21.1398 10.3169 21.3698 12.4469 19.3598L19.5569 12.6498C19.8269 12.3898 19.8369 11.9598 19.5869 11.6898C19.3369 11.4198 18.8969 11.4098 18.6269 11.6598L18.6169 11.6498Z" fill="#757676"/>
</svg>
