<svg width="24" height="24" viewBox="0 0 24 24" fill="none" xmlns="http://www.w3.org/2000/svg">
<path d="M18.5529 14.0068C16.4833 14.0068 14.8056 15.6845 14.8056 17.7541C14.8056 19.8237 16.4833 21.5014 18.5529 21.5014C20.6225 21.5014 22.3002 19.8237 22.3002 17.7541C22.3002 15.6845 20.6225 14.0068 18.5529 14.0068ZM21.3002 17.7541C21.3002 18.3315 21.1193 18.8663 20.8138 19.3091C18.5676 17.0539 17.5094 15.9921 16.9979 15.4932C17.4406 15.1877 17.9755 15.0069 18.5528 15.0069C20.0677 15.0069 21.3002 16.2392 21.3002 17.7541ZM15.8056 17.7541C15.8056 17.1754 15.9875 16.6395 16.2944 16.1962C17.0035 16.9024 18.7332 18.6368 20.1067 20.016C19.6642 20.3209 19.1297 20.5014 18.5529 20.5014C17.0381 20.5014 15.8056 19.269 15.8056 17.7541Z" fill="#757676"/>
<path d="M8.75591 11.1489C9.09511 11.2239 9.43001 11.2595 9.75611 11.2595C12.5027 11.2595 14.6567 8.73534 14.026 5.87894C13.6649 4.24324 12.392 2.97024 10.7562 2.60914C10.417 2.53414 10.0821 2.49854 9.75601 2.49854C7.00941 2.49854 4.85541 5.02274 5.48611 7.87914C5.84731 9.51484 7.12011 10.7878 8.75591 11.1489ZM7.50831 5.07643C8.05861 4.39133 8.87781 3.99853 9.75601 3.99853C9.97891 3.99853 10.2066 4.02394 10.4329 4.07394C11.4921 4.30754 12.3276 5.14304 12.5613 6.20234C12.7608 7.10513 12.5628 7.98574 12.0038 8.68154C11.4535 9.36664 10.6343 9.75944 9.75611 9.75944C9.53321 9.75944 9.30551 9.73404 9.07921 9.68404C8.02011 9.45044 7.18471 8.61494 6.95081 7.55564C6.75131 6.65284 6.94931 5.77223 7.50831 5.07643Z" fill="#757676"/>
<path d="M13.8134 18.1757C12.6374 18.6962 11.2377 18.9985 9.75461 18.9985C9.17221 18.9985 8.57971 18.9526 7.99341 18.8625C5.97831 18.5522 4.25711 17.6706 3.31161 16.4787C4.10641 15.4811 5.44291 14.686 7.05101 14.2587C7.52721 14.5165 8.03171 14.7055 8.55361 14.821C8.99231 14.9177 9.43801 14.9668 9.87821 14.9668C10.8343 14.9668 11.7816 14.7332 12.6277 14.2898C13.346 14.4858 13.9976 14.7622 14.5746 15.0913C14.8638 14.6597 15.2322 14.2915 15.6428 13.9751C14.8237 13.4587 13.8616 13.0503 12.796 12.7834L12.578 12.757C12.3873 12.757 12.1975 12.8146 12.0277 12.9091C11.3905 13.2636 10.6583 13.4667 9.87821 13.4667C9.55151 13.4667 9.21661 13.4311 8.87661 13.3561C8.44511 13.2606 8.04091 13.0993 7.67031 12.8866C7.49701 12.7872 7.30161 12.726 7.10551 12.726L6.89301 12.7511C4.67951 13.2904 2.87241 14.4323 1.87771 15.8981C1.63861 16.2504 1.64171 16.7084 1.88001 17.0612C2.99441 18.7116 5.14061 19.9408 7.76511 20.3449C8.44031 20.4489 9.10591 20.4985 9.75461 20.4985C11.3728 20.4985 12.8757 20.1794 14.1729 19.6433C13.9731 19.188 13.8615 18.6915 13.8134 18.1757Z" fill="#757676"/>
</svg>
