<svg width="24" height="24" viewBox="0 0 24 24" fill="none" xmlns="http://www.w3.org/2000/svg">
<path d="M21.9975 12.0002C21.9967 6.47879 17.5217 2.00319 12.0001 2.00269C6.47826 2.00319 2.00316 6.47859 2.00256 12.0003C2.00306 17.5217 6.47816 21.9968 12.0001 21.9973C17.5217 21.9968 21.9967 17.5214 21.9975 12.0002C21.9975 12.0004 21.9975 11.9999 21.9975 12.0002ZM20.2815 11.1633H16.4468C16.2474 8.54998 15.3618 6.04859 13.8875 3.89919C15.4268 4.25629 16.8036 5.03299 17.8858 6.11429C19.2083 7.43799 20.0855 9.19769 20.2815 11.1633ZM9.22906 11.1633C9.44946 8.60169 10.4107 6.16409 12.0001 4.14489C13.5895 6.16409 14.5508 8.60169 14.7711 11.1633H9.22906ZM14.771 12.8371C14.5505 15.3984 13.5894 17.836 12.0001 19.8549C10.4108 17.836 9.44956 15.3984 9.22906 12.8371H14.771ZM6.11416 6.11429C7.19636 5.03309 8.57306 4.25639 10.1125 3.89919C8.63816 6.04859 7.75266 8.54998 7.55316 11.1633H3.71846C3.91446 9.19779 4.79176 7.43799 6.11416 6.11429ZM3.71846 12.8371H7.55326C7.75276 15.4504 8.63816 17.9515 10.1124 20.1007C8.57306 19.7436 7.19626 18.9669 6.11406 17.8856C4.79166 16.5619 3.91446 14.8023 3.71846 12.8371ZM17.8857 17.8856C16.8034 18.9668 15.4268 19.7435 13.8874 20.1007C15.3616 17.9516 16.2472 15.4505 16.4466 12.8371H20.2813C20.0853 14.8023 19.2081 16.5619 17.8857 17.8856Z" fill="#757676"/>
</svg>
